<?xml version="1.0" encoding="UTF-8"?>
<svg width="100" height="100" viewBox="0 0 100 100" fill="none" xmlns="http://www.w3.org/2000/svg">
  <!-- Dark background -->
  <rect width="100" height="100" fill="#1F2937"/>
  
  <!-- Octagon outline -->
  <path d="M25 38L38 25H62L75 38V62L62 75H38L25 62V38Z" 
        stroke="#E5E7EB" 
        stroke-width="2" 
        fill="none"/>
  
  <!-- Fist silhouette -->
  <path d="
    M35 48
    C35 48, 40 42, 45 42
    H55
    C60 42, 65 48, 65 48
    V52
    L60 58
    H40
    L35 52
    V48
    Z" 
    fill="#E5E7EB"/>
  
  <!-- Knuckle details -->
  <path d="
    M42 42
    L42 58
    M47 42
    L47 58
    M52 42
    L52 58
    M57 42
    L57 58
    " 
    stroke="#1F2937"
    stroke-width="1.5"/>
  
  <!-- Thumb -->
  <path d="
    M35 50
    C35 50, 33 52, 33 54
    C33 56, 35 58, 37 58
    " 
    stroke="#E5E7EB"
    stroke-width="2"
    fill="none"/>
</svg> 